<svg class="svgicon svgicon-instagrame-circle" xmlns="http://www.w3.org/2000/svg" width="16" height="16" viewBox="0 0 16 16"><path d="M8.5,6.6C8.3,6.5,8.1,6.5,7.9,6.5S7.4,6.6,7.2,6.7C7,6.8,6.9,7,6.8,7.2C6.6,7.4,6.5,7.6,6.5,7.8s0,0.4,0,0.7S6.7,8.8,6.9,9C7,9.2,7.2,9.3,7.4,9.4c0.3,0.1,0.7,0.2,1,0.1c0.3-0.1,0.6-0.3,0.8-0.6c0.2-0.3,0.3-0.6,0.2-1c0-0.3-0.2-0.7-0.4-0.9C8.9,6.8,8.7,6.7,8.5,6.6z"/><path d="M8,0C3.6,0,0,3.6,0,8s3.6,8,8,8s8-3.6,8-8S12.4,0,8,0z M12.5,9.9c0,0.5-0.1,0.8-0.2,1.1c-0.1,0.3-0.3,0.6-0.5,0.8c-0.2,0.2-0.5,0.4-0.8,0.5c-0.3,0.1-0.6,0.2-1.1,0.2c-0.5,0-0.6,0-1.9,0s-1.4,0-1.9,0c-0.5,0-0.8-0.1-1.1-0.2c-0.3-0.1-0.6-0.3-0.8-0.5c-0.2-0.2-0.4-0.5-0.5-0.8c-0.1-0.3-0.2-0.6-0.2-1.1c0-0.5,0-0.6,0-1.9c0-1.2,0-1.4,0-1.9s0.1-0.8,0.2-1.1C3.8,4.8,4,4.5,4.3,4.3C4.5,4,4.8,3.8,5.1,3.7c0.3-0.1,0.6-0.2,1.1-0.2h0c0.5,0,0.6,0,1.9,0s1.4,0,1.9,0s0.8,0.1,1.1,0.2c0.3,0.1,0.6,0.3,0.8,0.5c0.2,0.2,0.4,0.5,0.5,0.8c0.1,0.3,0.2,0.6,0.2,1.1c0,0.5,0,0.6,0,1.9C12.5,9.2,12.5,9.4,12.5,9.9z"/><path d="M11.5,5.3c-0.1-0.2-0.2-0.4-0.3-0.5c-0.1-0.1-0.3-0.3-0.5-0.3c-0.2-0.1-0.4-0.1-0.8-0.2c-0.5,0-0.6,0-1.8,0c-1.2,0-1.3,0-1.8,0c-0.4,0-0.7,0.1-0.8,0.2C5.1,4.6,5,4.7,4.8,4.8C4.7,5,4.6,5.2,4.5,5.3C4.4,5.5,4.4,5.7,4.3,6.2c0,0.5,0,0.6,0,1.8c0,1.2,0,1.3,0,1.8c0,0.4,0.1,0.7,0.2,0.8c0.1,0.2,0.2,0.4,0.3,0.5c0.1,0.1,0.3,0.3,0.5,0.3c0.2,0.1,0.4,0.1,0.8,0.2c0.5,0,0.6,0,1.8,0s1.3,0,1.8,0c0.4,0,0.7-0.1,0.8-0.2c0.2-0.1,0.4-0.2,0.5-0.3c0.1-0.1,0.3-0.3,0.3-0.5c0.1-0.2,0.1-0.4,0.2-0.8c0-0.5,0-0.6,0-1.8c0-1.2,0-1.3,0-1.8C11.6,5.7,11.6,5.5,11.5,5.3z M10.1,8.9C10,9.2,9.9,9.4,9.6,9.6c-0.4,0.4-1,0.7-1.6,0.7s-1.2-0.2-1.6-0.7S5.7,8.6,5.7,8s0.2-1.2,0.7-1.6C6.6,6.1,6.8,6,7.1,5.9C7.4,5.7,7.7,5.7,8,5.7c0.3,0,0.6,0.1,0.9,0.2C9.2,6,9.4,6.1,9.6,6.4s0.4,0.5,0.5,0.8c0.1,0.3,0.2,0.6,0.2,0.9C10.3,8.3,10.3,8.6,10.1,8.9z M11,5.9c0,0.1-0.1,0.1-0.1,0.2c-0.1,0.1-0.2,0.2-0.4,0.1S10.2,6.1,10.1,6C10,5.9,9.9,5.8,9.9,5.6c0-0.1,0.1-0.3,0.1-0.4c0.1-0.1,0.1-0.1,0.2-0.1c0.1,0,0.1,0,0.2,0c0.1,0,0.1,0,0.2,0c0.1,0,0.1,0.1,0.2,0.1c0.1,0.1,0.1,0.1,0.1,0.2s0,0.1,0,0.2C11,5.7,11,5.8,11,5.9z"/></svg>