<svg class="svgicon svgicon-section-title" xmlns="http://www.w3.org/2000/svg" width="33" height="6" viewBox="0 0 33 6" style="enable-background:new 0 0 33 6;" xml:space="preserve"><linearGradient id="SVGID_1_" gradientUnits="userSpaceOnUse" x1="-914.1166" y1="409.5" x2="-913.7319" y2="409.5" gradientTransform="matrix(33 0 0 -4 30176 1641)"><stop offset="0" style="stop-color:#C7261F"/><stop offset="1" style="stop-color:#364C74"/></linearGradient><path style="fill:url(#SVGID_1_);" d="M26.4,6c-2.1,0-3.2-1.3-4.1-2.4c-0.9-1-1.4-1.6-2.5-1.6s-1.7,0.6-2.5,1.6C16.4,4.7,15.3,6,13.2,6C11.1,6,10,4.7,9.1,3.6C8.3,2.6,7.7,2,6.6,2S4.9,2.6,4.1,3.6C3.2,4.7,2.1,6,0,6V4c1.1,0,1.7-0.6,2.5-1.6C3.4,1.3,4.5,0,6.6,0s3.2,1.3,4.1,2.4c0.9,1,1.4,1.6,2.5,1.6c1.1,0,1.7-0.6,2.5-1.6c0.9-1.1,2-2.4,4.1-2.4s3.2,1.3,4.1,2.4c0.9,1,1.4,1.6,2.5,1.6c1.1,0,1.7-0.6,2.5-1.6C29.8,1.3,30.9,0,33,0v2c-1.1,0-1.7,0.6-2.5,1.6C29.6,4.7,28.5,6,26.4,6z"/></svg>