<svg class="svgicon svgicon-sound" xmlns="http://www.w3.org/2000/svg" width="19" height="16" viewBox="0 0 19 16"><path d="M9.9395 0.105579C10.2724 0.27497 10.4828 0.621233 10.4828 1V15C10.4828 15.3788 10.2724 15.725 9.9395 15.8944C9.60656 16.0638 9.20814 16.0273 8.91034 15.8L3.93103 12H0.982759C0.439996 12 0 11.5523 0 11V5C0 4.44772 0.439996 4 0.982759 4H3.93103L8.91034 0.200006C9.20814 -0.0272574 9.60656 -0.0638134 9.9395 0.105579ZM8.51724 3L4.84828 5.8C4.67816 5.92982 4.47126 6 4.25862 6H1.96552V10H4.25862C4.47126 10 4.67816 10.0702 4.84828 10.2L8.51724 13V3ZM13.2072 1.21946C13.4499 0.72548 14.0402 0.525256 14.5257 0.772245C15.9538 1.49883 17.0896 2.44089 17.8622 3.66928C18.637 4.90106 19 6.34683 19 8C19 9.65317 18.637 11.0989 17.8622 12.3307C17.0896 13.5591 15.9538 14.5012 14.5257 15.2278C14.0402 15.4747 13.4499 15.2745 13.2072 14.7805C12.9645 14.2866 13.1612 13.6859 13.6467 13.4389C14.8393 12.8322 15.669 12.1076 16.2067 11.2526C16.7423 10.4011 17.0345 9.34683 17.0345 8C17.0345 6.65317 16.7423 5.59894 16.2067 4.74739C15.669 3.89245 14.8393 3.16784 13.6467 2.5611C13.1612 2.31411 12.9645 1.71344 13.2072 1.21946ZM11.8969 5.21946C12.1396 4.72548 12.7299 4.52525 13.2154 4.77224L12.7759 5.66667C13.2154 4.77224 13.2158 4.77246 13.2162 4.77269L13.2171 4.77315L13.2191 4.77413L13.2232 4.77629L13.2331 4.78147C13.2404 4.7853 13.2489 4.7899 13.2586 4.79527C13.2781 4.80601 13.3025 4.81989 13.3311 4.83703C13.3882 4.87125 13.4626 4.91886 13.5487 4.98085C13.7196 5.10406 13.9426 5.28878 14.1656 5.54397C14.6188 6.06276 15.069 6.87388 15.069 8C15.069 9.12613 14.6188 9.93724 14.1656 10.456C13.9426 10.7112 13.7196 10.8959 13.5487 11.0191C13.4626 11.0811 13.3882 11.1288 13.3311 11.163C13.3025 11.1801 13.2781 11.194 13.2586 11.2047C13.2489 11.2101 13.2404 11.2147 13.2331 11.2185L13.2232 11.2237L13.2191 11.2259L13.2171 11.2269L13.2162 11.2273C13.2158 11.2275 13.2154 11.2278 12.7759 10.3333L13.2154 11.2278C12.7299 11.4747 12.1396 11.2745 11.8969 10.7805C11.6562 10.2908 11.8476 9.69609 12.3241 9.44527C12.3258 9.4443 12.3289 9.44251 12.3332 9.43989C12.3478 9.43114 12.3757 9.41365 12.4126 9.3871C12.4873 9.33323 12.5918 9.24711 12.6965 9.1273C12.8985 8.89609 13.1034 8.54054 13.1034 8C13.1034 7.45946 12.8985 7.10391 12.6965 6.8727C12.5918 6.75289 12.4873 6.66677 12.4126 6.6129C12.3757 6.58635 12.3478 6.56886 12.3332 6.56011C12.3289 6.55749 12.3258 6.5557 12.3241 6.55473C11.8476 6.30391 11.6562 5.70924 11.8969 5.21946ZM12.3345 9.43983C12.3348 9.43971 12.335 9.43959 12.3353 9.43946L12.3347 9.43975L12.3345 9.43983Z"/></svg>