<svg class="svgicon svgicon-text" xmlns="http://www.w3.org/2000/svg" width="16" height="16" viewBox="0 0 16 16"><path d="M7.27273 10.9091V6.54545H5.09091V5.09091H10.9091V6.54545H8.72727V10.9091H7.27273ZM0 16V11.6364H1.45455V4.36364H0V0H4.36364V1.45455H11.6364V0H16V4.36364H14.5455V11.6364H16V16H11.6364V14.5455H4.36364V16H0ZM4.36364 13.0909H11.6364V11.6364H13.0909V4.36364H11.6364V2.90909H4.36364V4.36364H2.90909V11.6364H4.36364V13.0909ZM1.45455 2.90909H2.90909V1.45455H1.45455V2.90909ZM13.0909 2.90909H14.5455V1.45455H13.0909V2.90909ZM13.0909 14.5455H14.5455V13.0909H13.0909V14.5455ZM1.45455 14.5455H2.90909V13.0909H1.45455V14.5455Z"/></svg>
