<svg class="svgicon svgicon-tiktok-circle" xmlns="http://www.w3.org/2000/svg" width="16" height="16" viewBox="0 0 16 16"><path d="M8,0C3.6,0,0,3.6,0,8s3.6,8,8,8s8-3.6,8-8S12.4,0,8,0z M10.9,4.2C11,4.2,11,4.3,11,4.3C11,4.3,10.9,4.2,10.9,4.2C10.9,4.1,10.9,4.1,10.9,4.2C10.9,4.1,10.9,4.1,10.9,4.2z M12.5,6.6c-0.7-0.1-1.4-0.3-2.1-0.8L9.8,5.3v0.8v3.9c0,1.7-1.4,3.2-3.2,3.2c-1.5,0-3.2-1.2-3.2-3.2c0-0.8,0.3-1.6,0.9-2.2C5,7.2,5.8,6.9,6.7,6.9c0,0,0.1,0,0.1,0V8c0,0-0.1,0-0.1,0c-1.1,0-2,0.9-2,2c0,1.1,0.9,2,2,2c0.5,0,1-0.2,1.4-0.6c0.4-0.4,0.6-0.9,0.6-1.4V2.8h1.2c0.1,0.6,0.3,1.2,0.7,1.6l0,0c0.6,0.7,1.5,1,1.9,1V6.6z"/><path d="M10.9,4.1C10.9,4.1,10.9,4.1,10.9,4.1"/><path d="M10.9,4.2c0,0,0.1,0.1,0.1,0.1C11,4.3,11,4.2,10.9,4.2z"/></svg>